<svg width="355" height="407" viewBox="0 0 355 407" fill="none" xmlns="http://www.w3.org/2000/svg">
<path fill-rule="evenodd" clip-rule="evenodd" d="M180.959 0.998275L350.737 98.9829C353.043 100.314 354.464 102.775 354.464 105.437V301.405C354.464 304.068 353.043 306.528 350.737 307.86L180.959 405.844C178.653 407.175 175.811 407.175 173.505 405.844L3.7277 307.86C1.42101 306.528 0 304.068 0 301.405V105.437C0 102.775 1.42101 100.314 3.7277 98.9829L173.505 0.998275C175.811 -0.332758 178.653 -0.332758 180.959 0.998275Z" fill="#9013FE"/>
<path fill-rule="evenodd" clip-rule="evenodd" d="M177.19 385.374L18.6031 295.991C17.7914 295.533 17.5043 294.505 17.9619 293.693C18.1127 293.426 18.3337 293.204 18.601 293.053L178.026 202.887L335.029 292.903C335.837 293.366 336.117 294.397 335.653 295.205C335.504 295.465 335.289 295.68 335.029 295.829L178.858 385.368C178.342 385.664 177.708 385.666 177.19 385.374Z" fill="#4D00B4"/>
<path fill-rule="evenodd" clip-rule="evenodd" d="M325.778 287.598L178.858 371.833C178.342 372.129 177.708 372.131 177.19 371.839L27.9868 287.745L28.4651 287.474L178.026 365.29L325.307 287.328L325.778 287.598ZM307.405 277.065L178.858 350.766C178.342 351.062 177.708 351.064 177.19 350.772L46.6438 277.193L47.8665 276.501L178.026 344.222L306.201 276.374L307.405 277.065ZM291.33 267.848L178.858 332.333C178.342 332.629 177.708 332.631 177.19 332.339L62.9674 267.961L64.8415 266.901L178.026 325.79L289.485 266.79L291.33 267.848ZM276.633 259.422L178.858 315.48C178.342 315.776 177.708 315.779 177.19 315.487L77.8918 259.52L80.3614 258.123L178.026 308.937L274.201 258.028L276.633 259.422ZM261.159 250.55L178.927 297.733C178.411 298.029 177.777 298.032 177.258 297.739L93.6751 250.593L95.0305 249.827L178.095 293.078L259.822 249.783L261.159 250.55Z" fill="#B969FF"/>
<path d="M166.901 249.896L182.632 236.275C183.162 235.816 183.933 236.431 183.604 237.049L178.468 246.688H187.395C187.982 246.688 188.252 247.418 187.806 247.8L171.848 261.46C171.319 261.912 170.555 261.304 170.877 260.687L175.94 251.006H167.314C166.729 251.006 166.458 250.279 166.901 249.896Z" fill="white"/>
<path fill-rule="evenodd" clip-rule="evenodd" d="M177.433 110C179.329 110 180.866 111.306 180.866 112.917L180.866 207.083C180.866 208.694 179.329 210 177.433 210C175.537 210 174 208.694 174 207.083L174 112.917C174 111.306 175.537 110 177.433 110Z" fill="url(#paint0_linear_14181_184631)"/>
<path fill-rule="evenodd" clip-rule="evenodd" d="M301.787 225.282C316.037 206.337 323.161 194.949 323.161 191.12C323.161 185.319 321.133 185.175 323.161 179.152C325.19 173.128 320.73 158.965 309.443 147.282C298.156 135.598 287.438 132.148 274.588 128.872C261.738 125.595 260.915 126.013 248.765 128.872C236.614 131.73 220.064 135.111 210.762 143.887C204.659 149.646 204.563 153.366 210.475 155.048C204.723 162.623 201.846 172.734 201.846 185.378C204.772 191.426 204.772 196.677 201.846 201.129C197.457 207.808 189.032 215.791 190.54 219.612C192.049 223.434 201.846 223.434 201.846 225.859C201.846 228.284 197.187 230.673 199.517 233.951C201.846 237.228 196.739 236.468 200.713 242.023C204.688 247.577 195.189 252.095 207.314 259.465C219.439 266.836 233.95 257.735 233.95 275.446C233.95 287.254 253.975 286.095 294.025 271.968C288.265 258.83 290.707 243.461 301.353 225.859L301.787 225.282Z" fill="white"/>
<path fill-rule="evenodd" clip-rule="evenodd" d="M236.191 180.285C236.191 168.651 245.626 159.219 257.262 159.219C268.899 159.219 278.333 168.651 278.333 180.285C278.333 191.918 268.899 201.351 257.262 201.351C245.626 201.351 236.191 191.918 236.191 180.285ZM239.766 180.285C239.766 189.943 247.602 197.777 257.262 197.777C266.923 197.777 274.759 189.943 274.759 180.285C274.759 170.626 266.923 162.792 257.262 162.792C247.602 162.792 239.766 170.626 239.766 180.285ZM265.041 172.472C265.248 172.472 265.417 172.641 265.417 172.848C265.417 172.937 265.389 173.027 265.333 173.093L259.214 180.381L265.323 187.665C265.38 187.735 265.413 187.82 265.413 187.909C265.413 188.121 265.243 188.286 265.036 188.286L261.932 188.271L257.262 182.704L252.591 188.276L249.482 188.29C249.275 188.29 249.106 188.121 249.106 187.914C249.107 187.825 249.139 187.738 249.195 187.669L255.315 180.386L249.195 173.097C249.139 173.027 249.106 172.942 249.106 172.853C249.106 172.641 249.275 172.477 249.482 172.477L252.591 172.491L257.262 178.058L261.937 172.486L265.041 172.472Z" fill="#9013FE"/>
<path fill-rule="evenodd" clip-rule="evenodd" d="M54.7807 143.139C32.3748 166.951 25.9881 189.159 35.6206 209.763C45.2531 230.367 45.2531 245.027 35.6206 253.742L63.2558 260.044C62.9554 264.21 61.9744 268.19 60.3128 271.984C100.477 286.17 120.559 287.334 120.559 275.477C120.559 257.692 135.112 266.831 147.272 259.43C159.431 252.029 149.905 247.492 153.891 241.914C157.877 236.337 152.755 237.1 155.091 233.809C157.428 230.518 152.755 228.118 152.755 225.683C152.755 223.248 162.58 223.248 164.093 219.411C165.606 215.574 157.156 207.558 152.755 200.851C149.82 196.38 149.82 191.108 152.755 185.034C152.755 174.99 150.95 166.538 147.339 159.678C149.886 159.16 151.572 158.373 152.007 158.088C154.919 156.187 153.222 134.995 116.746 128.19C92.4284 123.653 71.7734 128.636 54.7807 143.139Z" fill="white"/>
<path fill-rule="evenodd" clip-rule="evenodd" d="M76.5791 181.339C76.5791 169.706 86.014 160.273 97.6501 160.273C109.286 160.273 118.721 169.706 118.721 181.339C118.721 192.973 109.286 202.406 97.6501 202.406C86.014 202.406 76.5791 192.973 76.5791 181.339ZM80.1536 181.339C80.1536 190.998 87.9894 198.832 97.6501 198.832C107.311 198.832 115.147 190.998 115.147 181.339C115.147 171.681 107.311 163.847 97.6501 163.847C87.9894 163.847 80.1536 171.681 80.1536 181.339ZM104.239 173.861H106.445C106.751 173.861 106.93 174.209 106.746 174.459L96.8409 188.189C96.7025 188.382 96.52 188.54 96.3086 188.648C96.0971 188.757 95.8629 188.814 95.6251 188.814C95.3874 188.814 95.1532 188.757 94.9417 188.648C94.7303 188.54 94.5478 188.382 94.4093 188.189L88.549 180.064C88.3702 179.814 88.549 179.467 88.8547 179.467H91.0605C91.545 179.467 91.9965 179.702 92.2787 180.092L95.6275 184.738L103.021 174.487C103.303 174.092 103.76 173.861 104.239 173.861Z" fill="#9013FE"/>
<defs>
<linearGradient id="paint0_linear_14181_184631" x1="177.923" y1="112.917" x2="177.923" y2="207.083" gradientUnits="userSpaceOnUse">
<stop stop-color="#9013FE"/>
<stop offset="0.583333" stop-color="#4D00B4"/>
</linearGradient>
</defs>
</svg>
